<?xml version="1.0" encoding="utf-8"?>
<svg id="Layer_1" data-name="Layer 1" xmlns="http://www.w3.org/2000/svg" width="422.46" height="398.45" viewBox="0 0 422.46 398.45">
  <defs>
    <style>.cls-1{fill:#c9302f;}.cls-1,.cls-2,.cls-3{fill-rule:evenodd;}.cls-3{fill:#fff;}</style>
  </defs>
  <title>401gold</title>
  <path class="cls-1" d="M212.85.93,255.4,80.15l43.49-23.74-25,125.46L285,183.94c33.73-36.51,51.65-55,51.65-55,9,21.49,12.47,32.5,12.47,32.5l69-14.21-24.26,73.47L424,237,316.22,324.65l15.94,50.6-119.39-33.6L93.38,375.25l15.94-50.6L1.54,237l30.15-16.29L7.43,147.21l69,14.21s3.45-11,12.46-32.5c0,0,17.92,18.52,51.65,55l11.09-2.08-25-125.46,43.49,23.74L212.68.94C212.79.74,212.74.73,212.85.93Z" transform="translate(-1.54 -0.79)"/>
  <path class="cls-2" d="M336.68,128.92c.18,215.71,24.48,161.45-123.91,270.32C64.38,290.37,88.68,344.63,88.86,128.92Z" transform="translate(-1.54 -0.79)"/>
  <path class="cls-3" d="M212.77,382.77q19.07-13.82,38.46-27.18c11-7.65,22.21-15.2,33.1-23.06,11.29-8.14,25.75-18.67,32.59-31.11,7.74-14.08,7.92-35.32,8-51,.11-16.48-.36-33-.7-49.5-.4-19.58-.71-39.15-.83-58.73H102.12c-.11,19.58-.43,39.15-.83,58.73-.34,16.48-.81,33-.7,49.5.1,15.64.28,36.88,8,51,6.84,12.44,21.3,23,32.59,31.11,10.9,7.86,22.05,15.41,33.1,23.06Q193.68,369,212.77,382.77Z" transform="translate(-1.54 -0.79)"/>
  <path class="cls-2" d="M 176.876 166.325 L 176.876 234.985 L 184.327 234.985 L 184.327 252.934 L 176.876 252.934 L 176.876 271.392 L 150.677 271.392 L 150.677 252.934 L 119.466 252.934 L 119.466 234.996 L 142.151 166.335 L 176.876 166.325 Z M 150.71 234.985 L 150.71 190.276 L 139.063 234.985 L 150.71 234.985 Z M 251.391 201.9 L 251.391 236.965 C 251.391 244.938 250.943 250.708 250.082 254.339 C 249.146 258.127 247.3 261.631 244.706 264.546 C 242.075 267.634 238.68 269.978 234.859 271.339 C 230.724 272.796 226.364 273.517 221.978 273.467 C 216.687 273.619 211.408 272.899 206.351 271.339 C 202.475 270.058 199.037 267.712 196.43 264.569 C 194.083 261.697 192.302 258.407 191.182 254.87 C 190.139 251.464 189.621 246.063 189.627 238.668 L 189.627 201.9 C 189.627 192.249 190.462 185.024 192.129 180.226 C 193.9 175.285 197.433 171.172 202.05 168.677 C 207.018 165.774 213.009 164.327 220.019 164.333 C 225.316 164.241 230.572 165.267 235.444 167.346 C 239.388 168.922 242.877 171.453 245.599 174.713 C 247.846 177.585 249.41 180.93 250.177 184.495 C 250.972 188.129 251.37 193.927 251.37 201.89 L 251.391 201.9 Z M 225.226 193.108 C 225.226 187.529 224.959 184.059 224.405 182.633 C 223.852 181.207 222.618 180.503 220.593 180.503 C 218.959 180.321 217.395 181.227 216.741 182.739 C 216.102 184.219 215.794 187.679 215.794 193.075 L 215.794 244.257 C 215.794 250.346 216.082 254.019 216.677 255.254 C 217.273 256.489 218.551 257.191 220.52 257.191 C 222.49 257.191 223.714 256.456 224.352 254.977 C 224.991 253.497 225.257 250.218 225.257 245.087 L 225.257 193.108 L 225.226 193.108 Z M 301.21 166.325 L 301.21 271.381 L 275.076 271.381 L 275.076 214.962 C 275.076 206.818 274.874 201.9 274.501 200.26 C 274.081 198.585 272.898 197.202 271.308 196.525 C 269.563 195.687 265.659 195.265 259.599 195.257 L 257.012 195.257 L 257.012 183.091 C 269.672 180.388 279.278 174.801 285.829 166.335 L 301.21 166.325 Z" style=""/>
</svg>